<svg width="22" height="21" viewBox="0 0 22 21" fill="none" xmlns="http://www.w3.org/2000/svg">
<path d="M14.5192 8.4823C15.0388 8.58184 15.5234 9.06359 15.5145 9.66965V9.68773C15.4948 10.2756 15.1222 10.6494 14.6801 10.7395C14.2478 10.8274 13.7557 10.6444 13.4718 10.1759L13.3899 10.0212C13.2236 9.65507 13.2358 9.25345 13.4111 8.94137C13.6179 8.57389 14.0272 8.37376 14.5192 8.4823Z" fill="#F75049"/>
<path d="M7.4912 8.48029C7.97969 8.37581 8.38606 8.57567 8.59155 8.94137C8.79144 9.29747 8.7773 9.76941 8.52988 10.1729L8.53084 10.1739C8.24712 10.6434 7.75431 10.8264 7.32162 10.7385C6.87944 10.6483 6.50778 10.2747 6.48816 9.68673V9.66965C6.47955 9.09894 6.90939 8.63814 7.39388 8.50339L7.4912 8.48029Z" fill="#F75049"/>
<path fill-rule="evenodd" clip-rule="evenodd" d="M16.3113 2.36169C16.7636 2.32621 17.2661 2.41274 17.6834 2.68314L17.8482 2.80369C18.1901 3.08597 18.4344 3.50542 18.4658 4.03624L18.4696 4.16081L18.4687 4.17587L18.4542 4.42198L18.4533 4.43705C18.4381 4.5693 18.414 4.696 18.3858 4.81375L18.2952 5.13922C18.2031 5.43682 18.1382 5.60625 18.0987 5.7992V5.8012L18.0967 5.81025L18.0958 5.81225C18.0207 6.14955 18.1415 6.53257 18.408 7.12819L18.5679 7.47274C19.2965 9.08506 19.7514 10.8173 19.9419 12.5798L19.9785 12.9575V12.9605L20.0286 13.6295L20.0585 13.8676L20.0893 14.0112C20.0996 14.0499 20.1095 14.0809 20.1192 14.1047L20.1375 14.1418L20.1635 14.182C20.2276 14.27 20.3424 14.3547 20.6299 14.5376L20.863 14.6903C21.0786 14.8395 21.3346 15.048 21.5298 15.3503L21.6387 15.5431L21.6473 15.5662C21.8676 16.0051 21.9845 16.5355 21.999 17.0359L22 17.2036C21.9935 17.5996 21.9225 18.0268 21.7418 18.402L21.736 18.4141L21.6502 18.5718L21.6435 18.5829L21.6011 18.6431C21.0274 19.4061 20.1923 19.5383 19.4457 19.4407L19.1325 19.3865C18.3063 19.2069 17.4415 18.7608 16.7228 18.3116C16.7203 18.3102 16.7175 18.3081 16.715 18.3066L16.2342 17.9741C16.1389 17.9069 16.0544 17.8513 15.9799 17.8043C15.9607 17.8382 15.9389 17.8784 15.9144 17.9249L15.5627 18.6602C15.4329 18.9299 15.2743 19.2393 15.0809 19.509C15.0766 19.515 15.0703 19.5196 15.0655 19.5251C14.7961 19.9149 14.4382 20.2022 14.0027 20.3086L13.8071 20.3438C13.2867 20.4032 12.8022 20.2004 12.4081 19.9048C12.2405 19.7903 12.0921 19.6526 11.9658 19.5201L11.8444 19.3875L11.6122 19.1132L11.405 18.8691C11.2668 18.7112 11.1651 18.6169 11.09 18.5628C11.0477 18.5323 11.0178 18.5184 10.9984 18.5115C10.9788 18.5202 10.9462 18.5364 10.9002 18.5718L10.8077 18.6512C10.7262 18.7272 10.6483 18.8116 10.562 18.9103L10.2633 19.2559C9.89728 19.6755 9.27631 20.3604 8.34103 20.3528H8.33043L8.16374 20.3438C8.15788 20.3435 8.15127 20.3425 8.14543 20.3418L8.1146 20.3378L8.10496 20.3368C7.67819 20.2624 7.3566 20.0252 7.12024 19.7662L7.02388 19.6537C6.84629 19.4342 6.70089 19.183 6.58066 18.9475L6.46889 18.7185C6.39091 18.5545 6.32623 18.4132 6.26655 18.2845L6.09023 17.9259C6.06402 17.8776 6.03744 17.8386 6.01603 17.8043L5.9457 17.8516C5.9235 17.8664 5.89495 17.8845 5.87343 17.8988L5.49477 18.174L5.48995 18.178C4.59349 18.7929 3.46511 19.3249 2.46543 19.4327L2.26695 19.4488C1.69812 19.4774 1.05572 19.3576 0.584628 18.8701L0.493093 18.7677C0.0212122 18.2001 -0.0777833 17.4013 0.0527603 16.5145L0.0566144 16.5045H0.0546874L0.0903379 16.3066L0.13466 16.1218C0.242745 15.7208 0.413267 15.3998 0.635695 15.1383L0.740719 15.0238C0.988251 14.7703 1.25826 14.6085 1.4335 14.4984L1.68883 14.3267C1.74952 14.2798 1.79078 14.2391 1.82469 14.1941L1.86612 14.1288C1.91013 14.0458 1.95642 13.9053 1.97018 13.6526C2.05837 11.9216 2.40088 10.2219 2.96647 8.60184C2.96776 8.59791 2.96885 8.59363 2.97032 8.58978L3.11293 8.21811L3.11485 8.21409L3.35188 7.66159C3.43228 7.48174 3.51269 7.30631 3.58891 7.13924C3.7965 6.67327 3.92062 6.34321 3.92614 6.03526L3.91747 5.89664C3.90871 5.8312 3.89474 5.75964 3.87315 5.67765L3.7845 5.38131C3.70093 5.12044 3.55966 4.71822 3.53495 4.30144C3.45626 3.35464 4.09521 2.65359 4.83668 2.44909L4.84824 2.44406L4.86269 2.44005C5.46278 2.27409 6.08597 2.36656 6.60186 2.58671C6.60634 2.58822 6.61192 2.58785 6.61631 2.58972L6.85816 2.70424C7.09601 2.8267 7.31453 2.96507 7.44976 3.04076L7.59718 3.1181C7.72954 3.18205 7.83191 3.21278 7.93249 3.22157L8.0433 3.22458C8.14961 3.22168 8.28075 3.2043 8.44123 3.16933L8.77269 3.08696H8.77462L9.13305 2.99455L9.13401 2.99354L9.49341 2.91318C10.2139 2.76922 10.9395 2.73557 11.6575 2.79465L12.015 2.83181L12.0198 2.83282L12.2953 2.873L12.3021 2.874L12.6914 2.95236C12.8128 2.98047 12.9262 3.01022 13.0315 3.03774L13.415 3.13719C13.5259 3.16467 13.6245 3.18662 13.7223 3.20148L13.8428 3.21554C13.9609 3.22529 14.0747 3.22005 14.1964 3.19143C14.3604 3.15274 14.5551 3.06776 14.8063 2.89409L14.8179 2.88606L14.8468 2.86898L14.8487 2.86798L15.1541 2.69921C15.4729 2.5386 15.8483 2.40087 16.2574 2.36671C16.2677 2.36459 16.2786 2.36343 16.2892 2.3627C16.2982 2.36207 16.3071 2.36164 16.3113 2.36169ZM16.4058 3.89963L16.4067 3.90063L16.3942 3.90164H16.3903C16.159 3.91717 15.8922 4.02294 15.5906 4.20199L15.5896 4.20099C14.9113 4.66156 14.3327 4.79583 13.758 4.75549L13.5094 4.72837C13.3639 4.70628 13.2168 4.67372 13.0748 4.63896L12.6711 4.53449C12.4729 4.48267 12.2752 4.43371 12.0622 4.39687L11.8348 4.36372C11.1383 4.27743 10.4445 4.29334 9.76801 4.42902L9.76705 4.42801L9.47317 4.49632H9.46932L9.47028 4.49732L8.74282 4.67914C8.47692 4.73705 8.15379 4.78835 7.82458 4.76051C7.4909 4.73389 7.20726 4.6302 6.97089 4.51541L6.75024 4.39988C6.44159 4.22717 6.29132 4.11869 6.06421 4.02118L6.05169 4.01716C5.80568 3.91017 5.54594 3.87469 5.32711 3.91269L5.32615 3.91168L5.23172 3.93378L5.23269 3.93479L5.22112 3.9378C5.06629 3.97766 5.0174 4.06844 5.01011 4.13268L5.01108 4.18391V4.18893L5.03035 4.34263C5.05751 4.48628 5.11064 4.65043 5.18836 4.89311L5.26159 5.13018C5.33591 5.3847 5.40782 5.69689 5.40612 6.02923C5.40635 6.03422 5.40713 6.03928 5.40708 6.0443C5.39959 6.73394 5.12554 7.35368 4.92821 7.7962L4.92532 7.80323L4.92339 7.80725C4.70962 8.27578 4.5099 8.70019 4.35588 9.13122L4.35684 9.13223C3.83967 10.6144 3.52911 12.164 3.4492 13.737V13.74C3.42142 14.2504 3.29926 14.6653 3.08498 15.0057L2.98767 15.1464C2.79437 15.403 2.56318 15.5805 2.37197 15.7079L2.19661 15.8204C2.02109 15.9307 1.909 16.0029 1.82276 16.0806L1.74279 16.1619C1.66246 16.2564 1.56668 16.4161 1.5154 16.7526C1.4161 17.4307 1.54772 17.6811 1.61079 17.7571C1.66923 17.8272 1.81938 17.9269 2.19661 17.9078L2.34596 17.8947C3.11659 17.8015 4.17063 17.2952 5.00529 16.6491L5.01589 16.6411L5.04769 16.619L5.05154 16.616L5.25581 16.4804L5.25967 16.4784L5.40227 16.392C5.4528 16.3633 5.50595 16.3352 5.55932 16.3106L5.72698 16.2443C5.88367 16.1926 6.08107 16.1569 6.29738 16.1921L6.42842 16.2222L6.44577 16.2272L6.56621 16.2724L6.59897 16.2885L6.651 16.3176L6.66063 16.3227L6.78589 16.4111C7.06485 16.6292 7.2526 16.9335 7.37943 17.1675L7.59815 17.6105C7.66902 17.7624 7.73573 17.9114 7.79374 18.0334L7.8901 18.2283C7.98321 18.4099 8.06919 18.552 8.15507 18.6582L8.22348 18.7345C8.27488 18.7843 8.31157 18.7999 8.33332 18.8069C8.54887 18.8162 8.76488 18.6823 9.16966 18.2182L9.47028 17.8686C9.58149 17.7422 9.70084 17.6122 9.82004 17.501L10.0253 17.3272C10.2511 17.1539 10.5395 16.9962 10.8915 16.9635L10.9069 16.9625L10.9435 16.9615H10.9464L11.0842 16.9666C11.7603 17.0191 12.2307 17.5232 12.4987 17.8295L12.9322 18.3418L13.0652 18.4834C13.1035 18.5214 13.1381 18.5525 13.1693 18.5778L13.2358 18.6271L13.2656 18.6471L13.2733 18.6522C13.4756 18.8038 13.5991 18.815 13.6452 18.8099L13.6751 18.8028C13.7157 18.789 13.7868 18.7463 13.8784 18.608L13.889 18.5929L13.9006 18.5778C14.0095 18.4243 14.1177 18.2197 14.2388 17.9681L14.6155 17.1845C14.6169 17.1817 14.6178 17.1783 14.6194 17.1755L14.7225 16.9897L14.7254 16.9846L14.8246 16.8269C14.9334 16.6648 15.0735 16.4959 15.2563 16.3729L15.4037 16.2885C15.5572 16.2147 15.7296 16.1738 15.9153 16.179L16.0849 16.1971C16.2501 16.226 16.4017 16.2869 16.5349 16.3588C16.7241 16.4604 16.9083 16.5864 17.0629 16.6953L17.4888 16.9917C18.1545 17.4072 18.8488 17.7485 19.4332 17.8757L19.6365 17.9118C20.0618 17.9689 20.2815 17.8672 20.4092 17.719C20.4556 17.6283 20.4993 17.4856 20.5142 17.2981L20.5191 17.0821C20.5099 16.7661 20.4342 16.4659 20.3321 16.2684C20.3291 16.2625 20.3265 16.2561 20.3244 16.2513C20.3233 16.2492 20.3216 16.2474 20.3206 16.2453C20.2826 16.1679 20.2173 16.0977 20.0556 15.9841L19.859 15.8545C19.6123 15.6975 19.1386 15.4227 18.8589 14.9193L18.7625 14.7194C18.7067 14.5848 18.6673 14.4487 18.6383 14.3206L18.6016 14.1358C18.5611 13.8965 18.5431 13.6554 18.5313 13.4648L18.5043 13.0951L18.4359 12.4522C18.2458 10.9565 17.8458 9.49651 17.2334 8.13875L17.0793 7.80826C17.0774 7.8044 17.0795 7.80862 17.0764 7.80223L17.0696 7.78817C16.8241 7.2401 16.4491 6.38785 16.6553 5.46268C16.7163 5.17189 16.8254 4.86037 16.8856 4.66609L16.9646 4.37075C16.9807 4.29264 16.988 4.22713 16.9887 4.16884L16.98 4.08748C16.9762 4.07396 16.9722 4.06015 16.9617 4.04629L16.902 3.99405C16.8301 3.94751 16.7115 3.90637 16.5628 3.89762L16.4058 3.89963Z" fill="#F75049"/>
<path fill-rule="evenodd" clip-rule="evenodd" d="M17.6457 1.04653C18.4113 1.48856 18.9702 2.21657 19.199 3.07049C19.4278 3.92443 19.3078 4.83433 18.8658 5.59995L18.2616 6.64654C18.2564 6.64165 18.2512 6.63681 18.246 6.63193L18.2293 8.11922C18.2293 8.26436 18.1912 8.40699 18.1192 8.53299C18.0471 8.65897 17.9434 8.76402 17.8183 8.8376C17.6933 8.91113 17.5512 8.95073 17.4062 8.9525C17.261 8.95425 17.1177 8.91811 16.9908 8.84754L16.8463 8.76413L16.3525 8.2864C15.1198 7.13223 13.6383 6.27684 12.0224 5.7864L11.3618 5.59762L11.2173 5.51421C11.0928 5.43965 10.9901 5.33372 10.9191 5.20718C10.848 5.08062 10.811 4.93774 10.8122 4.7926C10.8133 4.64747 10.8525 4.50515 10.9255 4.37975C10.9986 4.25436 11.1031 4.15003 11.2288 4.07747L12.5081 3.31915C12.5014 3.31716 12.4947 3.31518 12.488 3.3132L13.0923 2.26661C13.5343 1.501 14.2623 0.942128 15.1163 0.713317C15.9702 0.484507 16.8801 0.604505 17.6457 1.04653Z" fill="#141616"/>
<path fill-rule="evenodd" clip-rule="evenodd" d="M18.1538 0.166407C18.3991 0.307998 18.5053 0.595837 18.4279 0.855761C19.0829 1.37677 19.559 2.09712 19.7783 2.91527C20.0482 3.92271 19.907 4.99681 19.3856 5.90008L18.8436 6.83883L18.8293 8.11947L18.8169 8.3051C18.7928 8.48955 18.7326 8.66834 18.6396 8.83086C18.5157 9.04742 18.3376 9.22896 18.1225 9.35547C17.9612 9.45026 17.7828 9.51164 17.5988 9.53798L17.4133 9.55266C17.1637 9.55561 16.9168 9.49372 16.6987 9.37238L16.5464 9.28449C16.504 9.26001 16.4649 9.22969 16.4297 9.19567L15.9351 8.7184C14.7731 7.63247 13.3781 6.82577 11.8566 6.36257L11.857 6.36391L11.1963 6.17419C11.1493 6.1607 11.1034 6.14196 11.0611 6.1175L10.9088 6.02961C10.6947 5.90137 10.5176 5.71853 10.3954 5.5009C10.2734 5.28339 10.2096 5.03749 10.2116 4.78808C10.2136 4.53856 10.2817 4.29355 10.4073 4.07793C10.533 3.8624 10.7125 3.68272 10.9286 3.55794L12.0323 2.90404L12.5733 1.96697C13.0949 1.06369 13.9535 0.403991 14.961 0.134021C15.779 -0.085155 16.6404 -0.0332621 17.419 0.273241C17.6054 0.0761459 17.9085 0.0247834 18.1538 0.166407ZM16.4784 5.95702C15.6622 5.38182 14.7937 4.8845 13.8848 4.47085C13.4845 4.29237 13.0839 4.13613 12.6851 4.00377L12.5834 3.97097L11.5344 4.59448L11.5281 4.5976C11.4933 4.61787 11.4637 4.64697 11.4434 4.68177C11.4231 4.71675 11.4119 4.75711 11.4115 4.79755C11.4113 4.83802 11.4215 4.87866 11.4413 4.91396C11.4612 4.94932 11.491 4.97913 11.5258 4.99998L11.596 5.0405L12.187 5.21029L12.1969 5.21264L12.5137 5.31434C13.989 5.80873 15.3499 6.59445 16.5157 7.62489L16.7622 7.84838L16.7691 7.8558L17.2117 8.28269L17.2827 8.32371C17.3181 8.3433 17.3582 8.35386 17.3986 8.35342L17.4583 8.34387C17.4775 8.33849 17.4969 8.33118 17.5143 8.32098C17.5492 8.30046 17.5785 8.27056 17.5986 8.23548C17.6186 8.20047 17.6291 8.16036 17.6292 8.12006L17.6287 8.11303L17.6425 6.89187C17.2824 6.56605 16.8933 6.25362 16.4784 5.95702ZM17.3457 1.56609C16.718 1.20376 15.9718 1.10568 15.2717 1.29328C14.5715 1.48087 13.9743 1.93892 13.6119 2.56658L13.3838 2.96154C13.6619 3.06754 13.9371 3.18021 14.2088 3.30025L14.7937 2.28707L14.8644 2.18806C15.0496 1.97935 15.3618 1.92266 15.6128 2.0676L17.7779 3.3176L17.8769 3.38829C18.0856 3.57347 18.1423 3.88563 17.9974 4.13668L17.4124 5.14986C17.6522 5.32515 17.8874 5.50714 18.1182 5.69493L18.3462 5.29998L18.47 5.06021C18.7291 4.48728 18.7831 3.8386 18.619 3.22589C18.4548 2.61347 18.0838 2.07975 17.5732 1.71318L17.3457 1.56609ZM15.2927 3.82121C15.4835 3.92151 15.6736 4.02641 15.8623 4.13541C16.0512 4.24444 16.2369 4.35649 16.4193 4.4716L16.659 4.05635L15.5325 3.40596L15.2927 3.82121Z" fill="#F75049"/>
</svg>
