<svg width="22" height="21" viewBox="0 0 22 21" fill="none" xmlns="http://www.w3.org/2000/svg">
<path d="M14.5192 8.66293C15.0388 8.76247 15.5234 9.24422 15.5145 9.85028V9.86837C15.4948 10.4562 15.1222 10.83 14.6801 10.9201C14.2478 11.008 13.7557 10.825 13.4718 10.3566L13.3899 10.2019C13.2236 9.8357 13.2358 9.43409 13.4111 9.122C13.6179 8.75453 14.0272 8.55439 14.5192 8.66293Z" fill="#FFD748"/>
<path d="M7.4912 8.66092C7.97969 8.55644 8.38606 8.7563 8.59155 9.122C8.79144 9.4781 8.7773 9.95005 8.52988 10.3536L8.53084 10.3546C8.24712 10.8241 7.75431 11.0071 7.32162 10.9191C6.87944 10.829 6.50778 10.4554 6.48816 9.86736V9.85028C6.47955 9.27958 6.90939 8.81877 7.39388 8.68402L7.4912 8.66092Z" fill="#FFD748"/>
<path fill-rule="evenodd" clip-rule="evenodd" d="M16.3113 2.54233C16.7636 2.50685 17.2661 2.59337 17.6834 2.86378L17.8482 2.98432C18.1901 3.2666 18.4344 3.68605 18.4658 4.21688L18.4696 4.34144L18.4687 4.35651L18.4542 4.60262L18.4533 4.61769C18.4381 4.74994 18.414 4.87664 18.3858 4.99438L18.2952 5.31985C18.2031 5.61746 18.1382 5.78689 18.0987 5.97983V5.98184L18.0967 5.99088L18.0958 5.99289C18.0207 6.33018 18.1415 6.7132 18.408 7.30882L18.5679 7.65338C19.2965 9.2657 19.7514 10.9979 19.9419 12.7604L19.9785 13.1381V13.1411L20.0286 13.8101L20.0585 14.0482L20.0893 14.1919C20.0996 14.2306 20.1095 14.2615 20.1192 14.2853L20.1375 14.3225L20.1635 14.3626C20.2276 14.4506 20.3424 14.5353 20.6299 14.7182L20.863 14.8709C21.0786 15.0201 21.3346 15.2286 21.5298 15.5309L21.6387 15.7238L21.6473 15.7469C21.8676 16.1858 21.9845 16.7161 21.999 17.2165L22 17.3843C21.9935 17.7803 21.9225 18.2075 21.7418 18.5827L21.736 18.5947L21.6502 18.7524L21.6435 18.7635L21.6011 18.8238C21.0274 19.5867 20.1923 19.7189 19.4457 19.6214L19.1325 19.5671C18.3063 19.3875 17.4415 18.9414 16.7228 18.4923C16.7203 18.4908 16.7175 18.4887 16.715 18.4872L16.2342 18.1547C16.1389 18.0875 16.0544 18.0319 15.9799 17.985C15.9607 18.0188 15.9389 18.0591 15.9144 18.1055L15.5627 18.8408C15.4329 19.1105 15.2743 19.4199 15.0809 19.6897C15.0766 19.6957 15.0703 19.7002 15.0655 19.7057C14.7961 20.0955 14.4382 20.3828 14.0027 20.4893L13.8071 20.5244C13.2867 20.5838 12.8022 20.381 12.4081 20.0854C12.2405 19.9709 12.0921 19.8333 11.9658 19.7007L11.8444 19.5681L11.6122 19.2939L11.405 19.0498C11.2668 18.8918 11.1651 18.7975 11.09 18.7434C11.0477 18.713 11.0178 18.6991 10.9984 18.6922C10.9788 18.7008 10.9462 18.717 10.9002 18.7524L10.8077 18.8318C10.7262 18.9078 10.6483 18.9922 10.562 19.091L10.2633 19.4365C9.89728 19.8562 9.27631 20.541 8.34103 20.5335H8.33043L8.16374 20.5244C8.15788 20.5241 8.15127 20.5232 8.14543 20.5224L8.1146 20.5184L8.10496 20.5174C7.67819 20.443 7.3566 20.2058 7.12024 19.9468L7.02388 19.8343C6.84629 19.6148 6.70089 19.3636 6.58066 19.1281L6.46889 18.8991C6.39091 18.7351 6.32623 18.5939 6.26655 18.4651L6.09023 18.1065C6.06402 18.0582 6.03744 18.0192 6.01603 17.985L5.9457 18.0322C5.9235 18.0471 5.89495 18.0651 5.87343 18.0794L5.49477 18.3546L5.48995 18.3587C4.59349 18.9735 3.46511 19.5055 2.46543 19.6133L2.26695 19.6294C1.69812 19.658 1.05572 19.5382 0.584628 19.0508L0.493093 18.9483C0.0212122 18.3808 -0.0777833 17.582 0.0527603 16.6952L0.0566144 16.6851H0.0546874L0.0903379 16.4872L0.13466 16.3024C0.242745 15.9014 0.413267 15.5805 0.635695 15.3189L0.740719 15.2044C0.988251 14.951 1.25826 14.7892 1.4335 14.6791L1.68883 14.5073C1.74952 14.4605 1.79078 14.4197 1.82469 14.3747L1.86612 14.3094C1.91013 14.2265 1.95642 14.0859 1.97018 13.8332C2.05837 12.1022 2.40088 10.4026 2.96647 8.78247C2.96776 8.77854 2.96885 8.77427 2.97032 8.77041L3.11293 8.39874L3.11485 8.39472L3.35188 7.84223C3.43228 7.66237 3.51269 7.48694 3.58891 7.31987C3.7965 6.8539 3.92062 6.52384 3.92614 6.21589L3.91747 6.07727C3.90871 6.01183 3.89474 5.94027 3.87315 5.85828L3.7845 5.56194C3.70093 5.30108 3.55966 4.89886 3.53495 4.48207C3.45626 3.53527 4.09521 2.83423 4.83668 2.62972L4.84824 2.6247L4.86269 2.62068C5.46278 2.45472 6.08597 2.54719 6.60186 2.76734C6.60634 2.76886 6.61192 2.76849 6.61631 2.77035L6.85816 2.88487C7.09601 3.00733 7.31453 3.1457 7.44976 3.22139L7.59718 3.29874C7.72954 3.36269 7.83191 3.39342 7.93249 3.4022L8.0433 3.40522C8.14961 3.40231 8.28075 3.38493 8.44123 3.34997L8.77269 3.2676H8.77462L9.13305 3.17518L9.13401 3.17418L9.49341 3.09381C10.2139 2.94985 10.9395 2.9162 11.6575 2.97528L12.015 3.01245L12.0198 3.01345L12.2953 3.05363L12.3021 3.05464L12.6914 3.13299C12.8128 3.1611 12.9262 3.19085 13.0315 3.21837L13.415 3.31782C13.5259 3.34531 13.6245 3.36725 13.7223 3.38211L13.8428 3.39618C13.9609 3.40592 14.0747 3.40069 14.1964 3.37207C14.3604 3.33337 14.5551 3.2484 14.8063 3.07473L14.8179 3.06669L14.8468 3.04961L14.8487 3.04861L15.1541 2.87985C15.4729 2.71923 15.8483 2.5815 16.2574 2.54735C16.2677 2.54522 16.2786 2.54406 16.2892 2.54333C16.2982 2.54271 16.3071 2.54227 16.3113 2.54233ZM16.4058 4.08026L16.4067 4.08127L16.3942 4.08227H16.3903C16.159 4.0978 15.8922 4.20357 15.5906 4.38263L15.5896 4.38162C14.9113 4.8422 14.3327 4.97646 13.758 4.93612L13.5094 4.909C13.3639 4.88692 13.2168 4.85435 13.0748 4.8196L12.6711 4.71513C12.4729 4.6633 12.2752 4.61434 12.0622 4.5775L11.8348 4.54435C11.1383 4.45806 10.4445 4.47398 9.76801 4.60965L9.76705 4.60864L9.47317 4.67695H9.46932L9.47028 4.67796L8.74282 4.85978C8.47692 4.91769 8.15379 4.96898 7.82458 4.94114C7.4909 4.91452 7.20726 4.81084 6.97089 4.69604L6.75024 4.58052C6.44159 4.40781 6.29132 4.29932 6.06421 4.20181L6.05169 4.19779C5.80568 4.0908 5.54594 4.05533 5.32711 4.09332L5.32615 4.09232L5.23172 4.11442L5.23269 4.11542L5.22112 4.11843C5.06629 4.15829 5.0174 4.24907 5.01011 4.31331L5.01108 4.36454V4.36957L5.03035 4.52326C5.05751 4.66691 5.11064 4.83107 5.18836 5.07374L5.26159 5.31081C5.33591 5.56533 5.40782 5.87753 5.40612 6.20987C5.40635 6.21485 5.40713 6.21992 5.40708 6.22493C5.39959 6.91457 5.12554 7.53432 4.92821 7.97684L4.92532 7.98387L4.92339 7.98789C4.70962 8.45641 4.5099 8.88082 4.35588 9.31186L4.35684 9.31286C3.83967 10.795 3.52911 12.3446 3.4492 13.9176V13.9206C3.42142 14.431 3.29926 14.8459 3.08498 15.1864L2.98767 15.327C2.79437 15.5836 2.56318 15.7611 2.37197 15.8885L2.19661 16.001C2.02109 16.1113 1.909 16.1835 1.82276 16.2612L1.74279 16.3426C1.66246 16.437 1.56668 16.5967 1.5154 16.9332C1.4161 17.6113 1.54772 17.8617 1.61079 17.9378C1.66923 18.0079 1.81938 18.1075 2.19661 18.0884L2.34596 18.0754C3.11659 17.9821 4.17063 17.4758 5.00529 16.8298L5.01589 16.8217L5.04769 16.7996L5.05154 16.7966L5.25581 16.661L5.25967 16.659L5.40227 16.5726C5.4528 16.5439 5.50595 16.5159 5.55932 16.4912L5.72698 16.4249C5.88367 16.3732 6.08107 16.3375 6.29738 16.3727L6.42842 16.4028L6.44577 16.4079L6.56621 16.4531L6.59897 16.4691L6.651 16.4983L6.66063 16.5033L6.78589 16.5917C7.06485 16.8098 7.2526 17.1141 7.37943 17.3481L7.59815 17.7911C7.66902 17.9431 7.73573 18.092 7.79374 18.214L7.8901 18.4089C7.98321 18.5905 8.06919 18.7327 8.15507 18.8388L8.22348 18.9152C8.27488 18.965 8.31157 18.9806 8.33332 18.9875C8.54887 18.9968 8.76488 18.863 9.16966 18.3988L9.47028 18.0493C9.58149 17.9228 9.70084 17.7928 9.82004 17.6816L10.0253 17.5078C10.2511 17.3346 10.5395 17.1769 10.8915 17.1442L10.9069 17.1432L10.9435 17.1422H10.9464L11.0842 17.1472C11.7603 17.1997 12.2307 17.7039 12.4987 18.0101L12.9322 18.5224L13.0652 18.664C13.1035 18.702 13.1381 18.7331 13.1693 18.7585L13.2358 18.8077L13.2656 18.8278L13.2733 18.8328C13.4756 18.9845 13.5991 18.9956 13.6452 18.9905L13.6751 18.9835C13.7157 18.9696 13.7868 18.9269 13.8784 18.7886L13.889 18.7735L13.9006 18.7585C14.0095 18.605 14.1177 18.4004 14.2388 18.1487L14.6155 17.3652C14.6169 17.3623 14.6178 17.3589 14.6194 17.3561L14.7225 17.1703L14.7254 17.1653L14.8246 17.0076C14.9334 16.8455 15.0735 16.6765 15.2563 16.5535L15.4037 16.4691C15.5572 16.3954 15.7296 16.3544 15.9153 16.3596L16.0849 16.3777C16.2501 16.4066 16.4017 16.4675 16.5349 16.5395C16.7241 16.641 16.9083 16.767 17.0629 16.876L17.4888 17.1723C18.1545 17.5879 18.8488 17.9292 19.4332 18.0563L19.6365 18.0925C20.0618 18.1496 20.2815 18.0478 20.4092 17.8996C20.4556 17.809 20.4993 17.6662 20.5142 17.4787L20.5191 17.2627C20.5099 16.9468 20.4342 16.6465 20.3321 16.449C20.3291 16.4432 20.3265 16.4367 20.3244 16.432C20.3233 16.4299 20.3216 16.4281 20.3206 16.4259C20.2826 16.3485 20.2173 16.2783 20.0556 16.1648L19.859 16.0352C19.6123 15.8782 19.1386 15.6034 18.8589 15.1L18.7625 14.9001C18.7067 14.7654 18.6673 14.6293 18.6383 14.5013L18.6016 14.3164C18.5611 14.0771 18.5431 13.836 18.5313 13.6454L18.5043 13.2757L18.4359 12.6328C18.2458 11.1371 17.8458 9.67715 17.2334 8.31938L17.0793 7.98889C17.0774 7.98503 17.0795 7.98925 17.0764 7.98286L17.0696 7.9688C16.8241 7.42073 16.4491 6.56848 16.6553 5.64331C16.7163 5.35252 16.8254 5.04101 16.8856 4.84672L16.9646 4.55139C16.9807 4.47328 16.988 4.40777 16.9887 4.34948L16.98 4.26811C16.9762 4.25459 16.9722 4.24078 16.9617 4.22692L16.902 4.17469C16.8301 4.12814 16.7115 4.08701 16.5628 4.07825L16.4058 4.08026Z" fill="#FFD748"/>
<path d="M17.4374 1.08801C17.5407 1.14766 17.6302 1.22863 17.6995 1.32578L19.979 4.52031C20.0284 4.58508 20.0578 4.66303 20.0634 4.74432C20.0691 4.82564 20.0508 4.90696 20.0108 4.97796C19.9707 5.04891 19.9108 5.10665 19.8384 5.1439C19.7659 5.18116 19.6838 5.19617 19.6028 5.18737L17.9722 5.02733L18.0399 5.04434L17.3108 6.30729C17.145 6.5944 16.7578 6.73787 16.2346 6.70647C15.7114 6.67503 15.0949 6.47132 14.5207 6.13983C13.9466 5.80833 13.4619 5.37629 13.1731 4.93889C12.8842 4.50145 12.8149 4.0944 12.9807 3.80729L13.7098 2.54434L12.8136 1.26294C12.7657 1.19775 12.7378 1.11981 12.7334 1.039C12.7289 0.958195 12.748 0.877781 12.7884 0.807691C12.8289 0.7376 12.889 0.680877 12.9612 0.644331C13.0334 0.607809 13.1149 0.59295 13.1953 0.601867L17.1004 0.979917C17.2192 0.991316 17.3341 1.02836 17.4374 1.08801Z" fill="#141616"/>
<path fill-rule="evenodd" clip-rule="evenodd" d="M17.7374 0.568452C17.9149 0.671025 18.0689 0.810465 18.1879 0.977451L20.4673 4.17208C20.5517 4.28693 20.6104 4.41698 20.6407 4.55525L20.6616 4.70264L20.662 4.85054C20.6545 4.94889 20.6328 5.04598 20.5975 5.13805L20.5334 5.27247L20.4703 5.368L19.2736 7.44088C19.1079 7.72762 18.7413 7.82582 18.4545 7.66035C18.1676 7.4947 18.0695 7.12821 18.235 6.84127L18.8834 5.71814L18.3724 5.66778L17.8304 6.60653C17.4935 7.19009 16.8051 7.34169 16.1989 7.30533C15.6411 7.27185 15.0305 7.08268 14.4618 6.79067L14.2208 6.65938C13.5867 6.2933 13.0242 5.80219 12.6723 5.2692C12.3585 4.794 12.1516 4.17382 12.4048 3.61726L12.4617 3.50693L13.0056 2.56478L12.3256 1.61174C12.2117 1.45408 12.1453 1.26608 12.1345 1.07175C12.1264 0.923883 12.1511 0.776753 12.2054 0.640239L12.2694 0.508008L12.3524 0.385674C12.4435 0.270524 12.5586 0.175256 12.6906 0.108463L12.827 0.0518974C12.9196 0.0209489 13.0165 0.00341121 13.1141 0L13.2621 0.00538301L17.1574 0.38357C17.3615 0.403204 17.5597 0.46593 17.7374 0.568452ZM13.5003 4.10653L13.4941 4.12892C13.4918 4.14454 13.4908 4.17294 13.4981 4.21578C13.5132 4.30491 13.5622 4.43889 13.674 4.6083C13.8998 4.95008 14.3067 5.32313 14.8208 5.61998L15.0141 5.72477C15.4649 5.95578 15.9126 6.08577 16.2704 6.10732C16.473 6.11947 16.6136 6.09489 16.6983 6.06344C16.739 6.04829 16.7631 6.03321 16.7755 6.02345C16.7869 6.01443 16.7918 6.00693 16.7918 6.00693L17.0614 5.54008L15.6324 5.40181L15.6321 5.40048C15.4796 5.38563 15.3305 5.34732 15.1909 5.28562L15.0542 5.21573C14.9209 5.13872 14.8011 5.04087 14.6993 4.92622L14.6037 4.80673L13.7708 3.638L13.5003 4.10653ZM17.0917 1.58718L17.0433 1.57727L13.5312 1.23652L15.5809 4.11023L15.6137 4.1472C15.626 4.1584 15.6394 4.1688 15.6539 4.17717L15.6999 4.197C15.7155 4.20196 15.7319 4.20531 15.7483 4.20691L19.2633 4.55045L17.2116 1.67444C17.1922 1.64739 17.1665 1.62366 17.1377 1.60701C17.1233 1.59866 17.1075 1.59222 17.0917 1.58718Z" fill="#FFD748"/>
</svg>
