<?xml version="1.0" encoding="UTF-8" standalone="no"?>
<!DOCTYPE svg PUBLIC "-//W3C//DTD SVG 1.1//EN"
 "http://www.w3.org/Graphics/SVG/1.1/DTD/svg11.dtd">
<!-- Generated by graphviz version 12.1.2 (20240928.0832)
 -->
<!-- Title: public.stores Pages: 1 -->
<svg width="845pt" height="510pt"
 viewBox="0.00 0.00 844.68 509.60" xmlns="http://www.w3.org/2000/svg" xmlns:xlink="http://www.w3.org/1999/xlink">
<g id="graph0" class="graph" transform="scale(1 1) rotate(0) translate(4 505.6)">
<title>public.stores</title>
<polygon fill="white" stroke="none" points="-4,4 -4,-505.6 840.68,-505.6 840.68,4 -4,4"/>
<!-- public.stores -->
<g id="node1" class="node">
<title>public.stores</title>
<polygon fill="#efefef" stroke="none" points="48.7,-419.8 48.7,-455.4 278.67,-455.4 278.67,-419.8 48.7,-419.8"/>
<polygon fill="none" stroke="black" points="48.7,-419.8 48.7,-455.4 278.67,-455.4 278.67,-419.8 48.7,-419.8"/>
<text text-anchor="start" x="55.7" y="-433.2" font-family="Arial Bold" font-size="18.00">public.stores</text>
<text text-anchor="start" x="147.18" y="-433.2" font-family="Arial" font-size="14.00">    </text>
<text text-anchor="start" x="178.3" y="-433.2" font-family="Arial" font-size="14.00" fill="#666666">[BASE TABLE]</text>
<polygon fill="none" stroke="black" points="48.7,-389 48.7,-419.8 278.67,-419.8 278.67,-389 48.7,-389"/>
<text text-anchor="start" x="55.7" y="-401.2" font-family="Arial" font-size="14.00">store_id </text>
<text text-anchor="start" x="109.39" y="-401.2" font-family="Arial" font-size="14.00" fill="#666666">[integer]</text>
<polygon fill="none" stroke="black" points="48.7,-358.2 48.7,-389 278.67,-389 278.67,-358.2 48.7,-358.2"/>
<text text-anchor="start" x="55.7" y="-370.4" font-family="Arial" font-size="14.00">country_code </text>
<text text-anchor="start" x="143.64" y="-370.4" font-family="Arial" font-size="14.00" fill="#666666">[varchar(2)]</text>
<polygon fill="none" stroke="black" points="48.7,-327.4 48.7,-358.2 278.67,-358.2 278.67,-327.4 48.7,-327.4"/>
<text text-anchor="start" x="55.7" y="-339.6" font-family="Arial" font-size="14.00">region_code </text>
<text text-anchor="start" x="136.65" y="-339.6" font-family="Arial" font-size="14.00" fill="#666666">[varchar(10)]</text>
<polygon fill="none" stroke="black" points="48.7,-296.6 48.7,-327.4 278.67,-327.4 278.67,-296.6 48.7,-296.6"/>
<text text-anchor="start" x="55.7" y="-308.8" font-family="Arial" font-size="14.00">store_name </text>
<text text-anchor="start" x="133.52" y="-308.8" font-family="Arial" font-size="14.00" fill="#666666">[varchar(100)]</text>
<polygon fill="none" stroke="black" stroke-width="3" points="47.2,-295.1 47.2,-456.9 280.17,-456.9 280.17,-295.1 47.2,-295.1"/>
</g>
<!-- public.regions -->
<g id="node2" class="node">
<title>public.regions</title>
<polygon fill="#efefef" stroke="none" points="43.2,-135.6 43.2,-171.2 284.17,-171.2 284.17,-135.6 43.2,-135.6"/>
<polygon fill="none" stroke="black" points="43.2,-135.6 43.2,-171.2 284.17,-171.2 284.17,-135.6 43.2,-135.6"/>
<text text-anchor="start" x="50.2" y="-149" font-family="Arial Bold" font-size="18.00">public.regions</text>
<text text-anchor="start" x="152.68" y="-149" font-family="Arial" font-size="14.00">    </text>
<text text-anchor="start" x="183.8" y="-149" font-family="Arial" font-size="14.00" fill="#666666">[BASE TABLE]</text>
<polygon fill="none" stroke="black" points="43.2,-104.8 43.2,-135.6 284.17,-135.6 284.17,-104.8 43.2,-104.8"/>
<text text-anchor="start" x="50.2" y="-117" font-family="Arial" font-size="14.00">country_code </text>
<text text-anchor="start" x="138.14" y="-117" font-family="Arial" font-size="14.00" fill="#666666">[varchar(2)]</text>
<polygon fill="none" stroke="black" points="43.2,-74 43.2,-104.8 284.17,-104.8 284.17,-74 43.2,-74"/>
<text text-anchor="start" x="50.2" y="-86.2" font-family="Arial" font-size="14.00">region_code </text>
<text text-anchor="start" x="131.15" y="-86.2" font-family="Arial" font-size="14.00" fill="#666666">[varchar(10)]</text>
<polygon fill="none" stroke="black" points="43.2,-43.2 43.2,-74 284.17,-74 284.17,-43.2 43.2,-43.2"/>
<text text-anchor="start" x="50.2" y="-55.4" font-family="Arial" font-size="14.00">region_name </text>
<text text-anchor="start" x="135.81" y="-55.4" font-family="Arial" font-size="14.00" fill="#666666">[varchar(100)]</text>
</g>
<!-- public.stores&#45;&gt;public.regions -->
<g id="edge1" class="edge">
<title>public.stores:country_code&#45;&gt;public.regions:country_code</title>
<path fill="none" stroke="black" d="M289.63,-370.75C336.44,-342.91 337.97,-120.2 285.17,-120.2"/>
<polygon fill="black" stroke="black" points="289.61,-370.76 278.76,-369.18 284.48,-372.23 280.32,-373.42 280.32,-373.42 280.32,-373.42 284.48,-372.23 281.23,-377.84 289.61,-370.76"/>
<text text-anchor="start" x="286.67" y="-383.6" font-family="Arial" font-size="10.00">FOREIGN KEY (country_code, region_code) REFERENCES regions(country_code, region_code) ON DELETE CASCADE</text>
</g>
</g>
</svg>
