<?xml version="1.0" encoding="UTF-8" standalone="no"?>
<!DOCTYPE svg PUBLIC "-//W3C//DTD SVG 1.1//EN"
 "http://www.w3.org/Graphics/SVG/1.1/DTD/svg11.dtd">
<!-- Generated by graphviz version 12.1.2 (20240928.0832)
 -->
<!-- Title: public.regions Pages: 1 -->
<svg width="848pt" height="510pt"
 viewBox="0.00 0.00 847.68 509.60" xmlns="http://www.w3.org/2000/svg" xmlns:xlink="http://www.w3.org/1999/xlink">
<g id="graph0" class="graph" transform="scale(1 1) rotate(0) translate(4 505.6)">
<title>public.regions</title>
<polygon fill="white" stroke="none" points="-4,4 -4,-505.6 843.68,-505.6 843.68,4 -4,4"/>
<!-- public.regions -->
<g id="node1" class="node">
<title>public.regions</title>
<polygon fill="#efefef" stroke="none" points="46.2,-138.6 46.2,-174.2 287.17,-174.2 287.17,-138.6 46.2,-138.6"/>
<polygon fill="none" stroke="black" points="46.2,-138.6 46.2,-174.2 287.17,-174.2 287.17,-138.6 46.2,-138.6"/>
<text text-anchor="start" x="53.2" y="-152" font-family="Arial Bold" font-size="18.00">public.regions</text>
<text text-anchor="start" x="155.68" y="-152" font-family="Arial" font-size="14.00">    </text>
<text text-anchor="start" x="186.8" y="-152" font-family="Arial" font-size="14.00" fill="#666666">[BASE TABLE]</text>
<polygon fill="none" stroke="black" points="46.2,-107.8 46.2,-138.6 287.17,-138.6 287.17,-107.8 46.2,-107.8"/>
<text text-anchor="start" x="53.2" y="-120" font-family="Arial" font-size="14.00">country_code </text>
<text text-anchor="start" x="141.14" y="-120" font-family="Arial" font-size="14.00" fill="#666666">[varchar(2)]</text>
<polygon fill="none" stroke="black" points="46.2,-77 46.2,-107.8 287.17,-107.8 287.17,-77 46.2,-77"/>
<text text-anchor="start" x="53.2" y="-89.2" font-family="Arial" font-size="14.00">region_code </text>
<text text-anchor="start" x="134.15" y="-89.2" font-family="Arial" font-size="14.00" fill="#666666">[varchar(10)]</text>
<polygon fill="none" stroke="black" points="46.2,-46.2 46.2,-77 287.17,-77 287.17,-46.2 46.2,-46.2"/>
<text text-anchor="start" x="53.2" y="-58.4" font-family="Arial" font-size="14.00">region_name </text>
<text text-anchor="start" x="138.81" y="-58.4" font-family="Arial" font-size="14.00" fill="#666666">[varchar(100)]</text>
<polygon fill="none" stroke="black" stroke-width="3" points="44.7,-44.7 44.7,-175.7 288.67,-175.7 288.67,-44.7 44.7,-44.7"/>
</g>
<!-- public.stores -->
<g id="node2" class="node">
<title>public.stores</title>
<polygon fill="#efefef" stroke="none" points="51.7,-422.8 51.7,-458.4 281.67,-458.4 281.67,-422.8 51.7,-422.8"/>
<polygon fill="none" stroke="black" points="51.7,-422.8 51.7,-458.4 281.67,-458.4 281.67,-422.8 51.7,-422.8"/>
<text text-anchor="start" x="58.7" y="-436.2" font-family="Arial Bold" font-size="18.00">public.stores</text>
<text text-anchor="start" x="150.18" y="-436.2" font-family="Arial" font-size="14.00">    </text>
<text text-anchor="start" x="181.3" y="-436.2" font-family="Arial" font-size="14.00" fill="#666666">[BASE TABLE]</text>
<polygon fill="none" stroke="black" points="51.7,-392 51.7,-422.8 281.67,-422.8 281.67,-392 51.7,-392"/>
<text text-anchor="start" x="58.7" y="-404.2" font-family="Arial" font-size="14.00">store_id </text>
<text text-anchor="start" x="112.39" y="-404.2" font-family="Arial" font-size="14.00" fill="#666666">[integer]</text>
<polygon fill="none" stroke="black" points="51.7,-361.2 51.7,-392 281.67,-392 281.67,-361.2 51.7,-361.2"/>
<text text-anchor="start" x="58.7" y="-373.4" font-family="Arial" font-size="14.00">country_code </text>
<text text-anchor="start" x="146.64" y="-373.4" font-family="Arial" font-size="14.00" fill="#666666">[varchar(2)]</text>
<polygon fill="none" stroke="black" points="51.7,-330.4 51.7,-361.2 281.67,-361.2 281.67,-330.4 51.7,-330.4"/>
<text text-anchor="start" x="58.7" y="-342.6" font-family="Arial" font-size="14.00">region_code </text>
<text text-anchor="start" x="139.65" y="-342.6" font-family="Arial" font-size="14.00" fill="#666666">[varchar(10)]</text>
<polygon fill="none" stroke="black" points="51.7,-299.6 51.7,-330.4 281.67,-330.4 281.67,-299.6 51.7,-299.6"/>
<text text-anchor="start" x="58.7" y="-311.8" font-family="Arial" font-size="14.00">store_name </text>
<text text-anchor="start" x="136.52" y="-311.8" font-family="Arial" font-size="14.00" fill="#666666">[varchar(100)]</text>
</g>
<!-- public.stores&#45;&gt;public.regions -->
<g id="edge1" class="edge">
<title>public.stores:country_code&#45;&gt;public.regions:country_code</title>
<path fill="none" stroke="black" d="M292.63,-373.75C339.44,-345.91 340.97,-123.2 288.17,-123.2"/>
<polygon fill="black" stroke="black" points="292.61,-373.76 281.76,-372.18 287.48,-375.23 283.32,-376.42 283.32,-376.42 283.32,-376.42 287.48,-375.23 284.23,-380.84 292.61,-373.76"/>
<text text-anchor="start" x="289.67" y="-386.6" font-family="Arial" font-size="10.00">FOREIGN KEY (country_code, region_code) REFERENCES regions(country_code, region_code) ON DELETE CASCADE</text>
</g>
</g>
</svg>
